<svg width="29" height="8" viewBox="0 0 29 8" fill="none" xmlns="http://www.w3.org/2000/svg">
<path d="M4.98145 5.36621C4.98145 5.68522 4.92448 5.9847 4.81055 6.26465C4.69661 6.54134 4.52734 6.77572 4.30273 6.96777C4.0651 7.17285 3.77865 7.33236 3.44336 7.44629C3.10807 7.55697 2.69303 7.6123 2.19824 7.6123C1.86296 7.6123 1.5472 7.59928 1.25098 7.57324C0.954753 7.55046 0.694336 7.51628 0.469727 7.4707V5.99609H0.645508C0.801758 6.05469 0.964518 6.11003 1.13379 6.16211C1.30306 6.21094 1.51953 6.23535 1.7832 6.23535C2.125 6.23535 2.38704 6.18978 2.56934 6.09863C2.75488 6.00749 2.88672 5.88053 2.96484 5.71777C3.03971 5.55827 3.08203 5.38411 3.0918 5.19531C3.10156 5.00326 3.10645 4.75911 3.10645 4.46289V1.56738H1.44141V0.229492H4.98145V5.36621ZM13.4678 7.5H11.5293L11.0264 6.03027H8.33105L7.82812 7.5H5.93848L8.62402 0.229492H10.7822L13.4678 7.5ZM10.5723 4.69727L9.67871 2.08984L8.78516 4.69727H10.5723ZM21.1045 0.229492L18.4531 7.5H16.3535L13.7021 0.229492H15.6699L17.4277 5.33691L19.1855 0.229492H21.1045ZM28.8682 7.5H26.9297L26.4268 6.03027H23.7314L23.2285 7.5H21.3389L24.0244 0.229492H26.1826L28.8682 7.5ZM25.9727 4.69727L25.0791 2.08984L24.1855 4.69727H25.9727Z" fill="white"/>
</svg>
