<svg width="89" height="28" viewBox="0 0 89 28" fill="none" xmlns="http://www.w3.org/2000/svg">
<path d="M88.25 0H0V28H88.25V0Z" fill="#009AFF"/>
<g filter="url(#filter0_d_201_967)">
<path d="M15.4412 19.334C15.4412 19.334 14.405 19.8896 16.1787 20.0776C18.3276 20.3036 19.4258 20.2711 21.7939 19.858C21.7939 19.858 22.4165 20.2178 23.286 20.5296C17.9774 22.6271 11.2717 20.4081 15.4412 19.334Z" fill="#5382A1"/>
<path d="M14.7925 16.5962C14.7925 16.5962 13.6302 17.3894 15.4053 17.5586C17.7008 17.7769 19.5136 17.7948 22.6504 17.2379C22.6504 17.2379 23.0843 17.6435 23.7665 17.8652C17.3481 19.5955 10.1992 18.0017 14.7925 16.5962Z" fill="#5382A1"/>
<path d="M20.2622 11.954C21.5703 13.3424 19.9186 14.5917 19.9186 14.5917C19.9186 14.5917 23.2399 13.0111 21.7145 11.0317C20.2899 9.1858 19.1975 8.26866 25.1117 5.10645C25.1117 5.10645 15.8283 7.24396 20.2622 11.954Z" fill="#E76F00"/>
<path d="M27.282 21.3584C27.282 21.3584 28.0489 21.9409 26.4375 22.3916C23.3733 23.2474 13.6841 23.5058 10.9924 22.4257C10.0249 22.0376 11.8393 21.4991 12.4101 21.3861C13.0053 21.2671 13.3455 21.2893 13.3455 21.2893C12.2695 20.5905 6.39043 22.6615 10.3592 23.2546C21.1828 24.8728 30.0895 22.5259 27.282 21.3584Z" fill="#5382A1"/>
<path d="M15.9394 13.7609C15.9394 13.7609 11.0109 14.8401 14.1941 15.232C15.5382 15.3979 18.2175 15.3604 20.7133 15.1676C22.7529 15.009 24.801 14.6717 24.801 14.6717C24.801 14.6717 24.0818 14.9557 23.5615 15.2832C18.5566 16.4967 8.88812 15.9322 11.6715 14.6909C14.0255 13.6419 15.9394 13.7609 15.9394 13.7609Z" fill="#5382A1"/>
<path d="M24.78 18.3166C29.8677 15.8793 27.5153 13.5371 25.8734 13.8526C25.471 13.9298 25.2915 13.9967 25.2915 13.9967C25.2915 13.9967 25.4409 13.781 25.7263 13.6876C28.9745 12.6348 31.4726 16.7927 24.6777 18.4394C24.6777 18.4395 24.7565 18.3746 24.78 18.3166Z" fill="#5382A1"/>
<path d="M21.7138 -1.00249e-07C21.7138 -1.00249e-07 24.5314 2.59849 19.0414 6.59422C14.6389 9.79949 18.0375 11.627 19.0395 13.7151C16.4698 11.5776 14.5839 9.69592 15.8491 7.94464C17.7061 5.37392 22.8506 4.12754 21.7138 -1.00249e-07Z" fill="#E76F00"/>
<path d="M16.4393 24.9211C21.3228 25.2093 28.8221 24.7612 28.9997 22.6309C28.9997 22.6309 28.6583 23.4384 24.9637 24.0798C20.7955 24.8029 15.6546 24.7185 12.6055 24.2551C12.6055 24.255 13.2297 24.7313 16.4393 24.9211Z" fill="#5382A1"/>
</g>
<path d="M44.9814 15.3662C44.9814 15.6852 44.9245 15.9847 44.8105 16.2646C44.6966 16.5413 44.5273 16.7757 44.3027 16.9678C44.0651 17.1729 43.7786 17.3324 43.4434 17.4463C43.1081 17.557 42.693 17.6123 42.1982 17.6123C41.863 17.6123 41.5472 17.5993 41.251 17.5732C40.9548 17.5505 40.6943 17.5163 40.4697 17.4707V15.9961H40.6455C40.8018 16.0547 40.9645 16.11 41.1338 16.1621C41.3031 16.2109 41.5195 16.2354 41.7832 16.2354C42.125 16.2354 42.387 16.1898 42.5693 16.0986C42.7549 16.0075 42.8867 15.8805 42.9648 15.7178C43.0397 15.5583 43.082 15.3841 43.0918 15.1953C43.1016 15.0033 43.1064 14.7591 43.1064 14.4629V11.5674H41.4414V10.2295H44.9814V15.3662ZM53.4678 17.5H51.5293L51.0264 16.0303H48.3311L47.8281 17.5H45.9385L48.624 10.2295H50.7822L53.4678 17.5ZM50.5723 14.6973L49.6787 12.0898L48.7852 14.6973H50.5723ZM61.1045 10.2295L58.4531 17.5H56.3535L53.7021 10.2295H55.6699L57.4277 15.3369L59.1855 10.2295H61.1045ZM68.8682 17.5H66.9297L66.4268 16.0303H63.7314L63.2285 17.5H61.3389L64.0244 10.2295H66.1826L68.8682 17.5ZM65.9727 14.6973L65.0791 12.0898L64.1855 14.6973H65.9727Z" fill="white"/>
<defs>
<filter id="filter0_d_201_967" x="-11" y="-20" width="60" height="64.9995" filterUnits="userSpaceOnUse" color-interpolation-filters="sRGB">
<feFlood flood-opacity="0" result="BackgroundImageFix"/>
<feColorMatrix in="SourceAlpha" type="matrix" values="0 0 0 0 0 0 0 0 0 0 0 0 0 0 0 0 0 0 127 0" result="hardAlpha"/>
<feOffset/>
<feGaussianBlur stdDeviation="10"/>
<feComposite in2="hardAlpha" operator="out"/>
<feColorMatrix type="matrix" values="0 0 0 0 1 0 0 0 0 1 0 0 0 0 1 0 0 0 0.5 0"/>
<feBlend mode="normal" in2="BackgroundImageFix" result="effect1_dropShadow_201_967"/>
<feBlend mode="normal" in="SourceGraphic" in2="effect1_dropShadow_201_967" result="shape"/>
</filter>
</defs>
</svg>
