<svg width="89" height="28" viewBox="0 0 89 28" fill="none" xmlns="http://www.w3.org/2000/svg">
<path d="M88.25 0H0V28H88.25V0Z" fill="#777BB3"/>
<path d="M49.5303 12.5244C49.5303 12.8499 49.4733 13.1689 49.3594 13.4814C49.2454 13.7907 49.0827 14.0511 48.8711 14.2627C48.5814 14.5492 48.2575 14.7656 47.8994 14.9121C47.5446 15.0586 47.1019 15.1318 46.5713 15.1318H45.4043V17.5H43.5293V10.2295H46.6152C47.0775 10.2295 47.4665 10.2702 47.7822 10.3516C48.1012 10.4297 48.3828 10.5485 48.627 10.708C48.9199 10.9001 49.1429 11.1458 49.2959 11.4453C49.4521 11.7448 49.5303 12.1045 49.5303 12.5244ZM47.5918 12.5684C47.5918 12.3633 47.5365 12.1875 47.4258 12.041C47.3151 11.8913 47.1865 11.7871 47.04 11.7285C46.8447 11.6504 46.6543 11.6081 46.4688 11.6016C46.2832 11.5918 46.0358 11.5869 45.7266 11.5869H45.4043V13.7646H45.9414C46.2604 13.7646 46.5225 13.7451 46.7275 13.7061C46.9359 13.667 47.11 13.5889 47.25 13.4717C47.3704 13.3675 47.4567 13.2438 47.5088 13.1006C47.5641 12.9541 47.5918 12.7767 47.5918 12.5684ZM57.3818 17.5H55.5068V14.2969H52.7383V17.5H50.8633V10.2295H52.7383V12.8906H55.5068V10.2295H57.3818V17.5ZM65.2432 12.5244C65.2432 12.8499 65.1862 13.1689 65.0723 13.4814C64.9583 13.7907 64.7956 14.0511 64.584 14.2627C64.2943 14.5492 63.9704 14.7656 63.6123 14.9121C63.2575 15.0586 62.8148 15.1318 62.2842 15.1318H61.1172V17.5H59.2422V10.2295H62.3281C62.7904 10.2295 63.1794 10.2702 63.4951 10.3516C63.8141 10.4297 64.0957 10.5485 64.3398 10.708C64.6328 10.9001 64.8558 11.1458 65.0088 11.4453C65.165 11.7448 65.2432 12.1045 65.2432 12.5244ZM63.3047 12.5684C63.3047 12.3633 63.2493 12.1875 63.1387 12.041C63.028 11.8913 62.8994 11.7871 62.7529 11.7285C62.5576 11.6504 62.3672 11.6081 62.1816 11.6016C61.9961 11.5918 61.7487 11.5869 61.4395 11.5869H61.1172V13.7646H61.6543C61.9733 13.7646 62.2354 13.7451 62.4404 13.7061C62.6488 13.667 62.8229 13.5889 62.9629 13.4717C63.0833 13.3675 63.1696 13.2438 63.2217 13.1006C63.277 12.9541 63.3047 12.7767 63.3047 12.5684Z" fill="white"/>
<g filter="url(#filter0_d_201_967)">
<path d="M9 14C9 17.866 14.8204 21 22 21C29.1795 21 35 17.866 35 14C35 10.1341 29.1795 7 22 7C14.8204 7 9 10.1341 9 14Z" fill="url(#paint0_radial_201_967)"/>
</g>
<path d="M22 20.48C28.8991 20.48 34.4921 17.5786 34.4921 13.9997C34.4921 10.4208 28.8991 7.5194 22 7.5194C15.1008 7.5194 9.50781 10.4208 9.50781 13.9997C9.50781 17.5786 15.1008 20.48 22 20.48Z" fill="#777BB3"/>
<path d="M16.0623 14.8031C16.6296 14.8031 17.0531 14.6961 17.321 14.485C17.5861 14.276 17.7692 13.914 17.8652 13.4091C17.9547 12.9371 17.9206 12.6076 17.7639 12.4298C17.6037 12.2481 17.2574 12.156 16.7345 12.156H15.8279L15.3253 14.8031H16.0623ZM13.0971 18.064C13.055 18.064 13.015 18.0447 12.9883 18.0114C12.9615 17.9781 12.9506 17.9344 12.9586 17.892L14.2906 10.877C14.3035 10.8092 14.3616 10.7602 14.4291 10.7602H17.2998C18.202 10.7602 18.8736 11.011 19.2957 11.5056C19.72 12.0028 19.8511 12.6979 19.6851 13.5714C19.6176 13.9273 19.5015 14.2578 19.34 14.5537C19.1783 14.8499 18.9646 15.124 18.7047 15.3685C18.3936 15.6666 18.0415 15.8827 17.6592 16.0098C17.2829 16.1353 16.7996 16.1989 16.2228 16.1989H15.0604L14.7284 17.9471C14.7155 18.015 14.6575 18.064 14.59 18.064H13.0971Z" fill="black"/>
<path d="M15.9446 12.3005H16.735C17.366 12.3005 17.5852 12.4423 17.6597 12.5267C17.7833 12.667 17.8066 12.9627 17.7272 13.3819C17.6379 13.8511 17.4725 14.1839 17.2354 14.3707C16.9927 14.562 16.5981 14.6589 16.0627 14.6589H15.4969L15.9446 12.3005ZM17.3003 10.616H14.4295C14.2944 10.616 14.1784 10.714 14.1526 10.8496L12.8206 17.8647C12.8045 17.9493 12.8263 18.0369 12.8798 18.1034C12.9334 18.17 13.0133 18.2085 13.0975 18.2085H14.5904C14.7255 18.2085 14.8416 18.1105 14.8673 17.9748L15.1771 16.3435H16.2232C16.8148 16.3435 17.3129 16.2774 17.7034 16.1472C18.105 16.0137 18.4744 15.7872 18.8015 15.4742C19.0719 15.2195 19.2947 14.9336 19.4635 14.6243C19.6323 14.315 19.7537 13.9701 19.824 13.5991C19.9987 12.6796 19.8568 11.9433 19.4023 11.4108C18.9523 10.8834 18.245 10.616 17.3003 10.616ZM15.1546 14.9477H16.0627C16.6646 14.9477 17.1129 14.8316 17.4075 14.5995C17.7021 14.3673 17.9009 13.9798 18.0041 13.4368C18.1029 12.9155 18.0579 12.5476 17.8691 12.3332C17.6801 12.1189 17.3021 12.0117 16.735 12.0117H15.7121L15.1546 14.9477V14.9477ZM17.3003 10.9047C18.1639 10.9047 18.7939 11.1367 19.1899 11.6008C19.5858 12.0648 19.7051 12.7125 19.5471 13.544C19.4821 13.8866 19.3721 14.1997 19.2173 14.4835C19.0622 14.7674 18.8598 15.027 18.6097 15.2624C18.3116 15.548 17.9804 15.7515 17.616 15.8726C17.2516 15.9942 16.7875 16.0547 16.2232 16.0547H14.9445L14.5904 17.9197H13.0975L14.4295 10.9047H17.3003" fill="white"/>
<path d="M23.1084 16.1992C23.0662 16.1992 23.0263 16.18 22.9996 16.1467C22.9727 16.1134 22.9619 16.0697 22.9699 16.0273L23.5591 12.9234C23.6151 12.6283 23.6013 12.4164 23.5202 12.3269C23.4706 12.2721 23.3214 12.1804 22.8804 12.1804H21.813L21.0722 16.0824C21.0593 16.1502 21.0012 16.1992 20.9337 16.1992H19.4526C19.4105 16.1992 19.3705 16.18 19.3437 16.1467C19.3169 16.1134 19.3061 16.0696 19.3141 16.0273L20.6461 9.01228C20.659 8.94447 20.717 8.89547 20.7846 8.89547H22.2657C22.3078 8.89547 22.3477 8.91472 22.3745 8.94798C22.4013 8.98129 22.4122 9.02504 22.4042 9.06739L22.0827 10.7605H23.231C24.1058 10.7605 24.699 10.9184 25.0445 11.2432C25.3967 11.5745 25.5066 12.1043 25.3712 12.8179L24.7515 16.0824C24.7386 16.1502 24.6806 16.1992 24.613 16.1992H23.1084Z" fill="black"/>
<path d="M22.2651 8.75122H20.784C20.6489 8.75122 20.5328 8.84921 20.5071 8.98489L19.1751 15.9999C19.159 16.0846 19.1808 16.1721 19.2344 16.2387C19.288 16.3052 19.3678 16.3438 19.4521 16.3438H20.9332C21.0682 16.3438 21.1844 16.2458 21.2101 16.1101L21.9287 12.3249H22.8799C23.3201 12.3249 23.4125 12.4211 23.4162 12.4253C23.4429 12.4547 23.4781 12.5909 23.4201 12.896L22.8309 15.9999C22.8148 16.0846 22.8365 16.1721 22.8901 16.2387C22.9437 16.3052 23.0236 16.3438 23.1078 16.3438H24.6125C24.7475 16.3438 24.8636 16.2458 24.8894 16.1101L25.5091 12.8457C25.6545 12.0794 25.5301 11.5046 25.1395 11.137C24.7667 10.7866 24.1423 10.6163 23.2305 10.6163H22.2532L22.5421 9.09511C22.5581 9.01045 22.5364 8.92285 22.4828 8.85634C22.4292 8.78977 22.3494 8.75122 22.2651 8.75122ZM22.2651 9.04L21.911 10.905H23.2305C24.0607 10.905 24.6334 11.0534 24.9486 11.3497C25.2637 11.6462 25.3581 12.1265 25.2322 12.7906L24.6125 16.055H23.1078L23.697 12.9512C23.7641 12.5981 23.7394 12.3572 23.623 12.2288C23.5066 12.1004 23.2588 12.0361 22.8799 12.0361H21.6961L20.9332 16.055H19.4521L20.784 9.04H22.2651Z" fill="white"/>
<path d="M27.7146 14.8031C28.2819 14.8031 28.7054 14.6961 28.9734 14.485C29.2385 14.2761 29.4216 13.9141 29.5176 13.4091C29.6071 12.9371 29.573 12.6076 29.4162 12.4298C29.2561 12.2481 28.9097 12.156 28.3868 12.156H27.4803L26.9777 14.8031H27.7146ZM24.7495 18.064C24.7074 18.064 24.6674 18.0447 24.6407 18.0114C24.6139 17.9781 24.6029 17.9344 24.611 17.892L25.943 10.877C25.9559 10.8092 26.0139 10.7602 26.0815 10.7602H28.9522C29.8544 10.7602 30.5259 11.011 30.9481 11.5056C31.3724 12.0028 31.5034 12.6978 31.3375 13.5714C31.2699 13.9273 31.1538 14.2578 30.9923 14.5537C30.8306 14.8499 30.6169 15.124 30.357 15.3685C30.0459 15.6666 29.6939 15.8827 29.3115 16.0098C28.9352 16.1353 28.4519 16.1989 27.8751 16.1989H26.7127L26.3809 17.9471C26.3679 18.015 26.3099 18.064 26.2423 18.064H24.7495Z" fill="black"/>
<path d="M27.5969 12.3005H28.3872C29.0183 12.3005 29.2375 12.4423 29.312 12.5267C29.4356 12.667 29.4589 12.9627 29.3795 13.3818C29.2902 13.8511 29.1248 14.1839 28.8877 14.3707C28.645 14.562 28.2504 14.6589 27.715 14.6589H27.1492L27.5969 12.3005ZM28.9526 10.616H26.0818C25.9468 10.616 25.8307 10.714 25.8049 10.8496L24.473 17.8647C24.4569 17.9493 24.4786 18.0369 24.5322 18.1034C24.5858 18.17 24.6656 18.2085 24.7499 18.2085H26.2427C26.3778 18.2085 26.4939 18.1105 26.5197 17.9748L26.8294 16.3435H27.8755C28.4671 16.3435 28.9652 16.2774 29.3557 16.1472C29.7573 16.0137 30.1268 15.7872 30.4539 15.4741C30.7243 15.2194 30.947 14.9336 31.1158 14.6243C31.2846 14.315 31.406 13.9701 31.4763 13.5991C31.651 12.6795 31.5091 11.9433 31.0546 11.4107C30.6046 10.8834 29.8973 10.616 28.9526 10.616ZM26.807 14.9477H27.715C28.3169 14.9477 28.7652 14.8316 29.0598 14.5995C29.3545 14.3673 29.5531 13.9798 29.6564 13.4368C29.7552 12.9155 29.7102 12.5476 29.5214 12.3332C29.3324 12.1189 28.9544 12.0117 28.3872 12.0117H27.3644L26.807 14.9477ZM28.9526 10.9047C29.8162 10.9047 30.4462 11.1367 30.8422 11.6008C31.2382 12.0648 31.3574 12.7125 31.1994 13.544C31.1344 13.8866 31.0244 14.1997 30.8696 14.4835C30.7145 14.7674 30.5121 15.027 30.262 15.2624C29.9639 15.548 29.6327 15.7515 29.2683 15.8726C28.9039 15.9942 28.4398 16.0547 27.8755 16.0547H26.5968L26.2427 17.9197H24.7499L26.0818 10.9047H28.9526" fill="white"/>
<defs>
<filter id="filter0_d_201_967" x="-41" y="-43" width="126" height="114" filterUnits="userSpaceOnUse" color-interpolation-filters="sRGB">
<feFlood flood-opacity="0" result="BackgroundImageFix"/>
<feColorMatrix in="SourceAlpha" type="matrix" values="0 0 0 0 0 0 0 0 0 0 0 0 0 0 0 0 0 0 127 0" result="hardAlpha"/>
<feOffset/>
<feGaussianBlur stdDeviation="25"/>
<feComposite in2="hardAlpha" operator="out"/>
<feColorMatrix type="matrix" values="0 0 0 0 0 0 0 0 0 0 0 0 0 0 0 0 0 0 0.5 0"/>
<feBlend mode="normal" in2="BackgroundImageFix" result="effect1_dropShadow_201_967"/>
<feBlend mode="normal" in="SourceGraphic" in2="effect1_dropShadow_201_967" result="shape"/>
</filter>
<radialGradient id="paint0_radial_201_967" cx="0" cy="0" r="1" gradientUnits="userSpaceOnUse" gradientTransform="translate(16.8053 9.46098) scale(17.0708 17.474)">
<stop stop-color="#AEB2D5"/>
<stop offset="0.3" stop-color="#AEB2D5"/>
<stop offset="0.75" stop-color="#484C89"/>
<stop offset="1" stop-color="#484C89"/>
</radialGradient>
</defs>
</svg>
