<svg width="89" height="28" viewBox="0 0 89 28" fill="none" xmlns="http://www.w3.org/2000/svg">
<g clip-path="url(#clip0_201_966)">
<path d="M88.25 0H0V28H88.25V0Z" fill="#F5CE02"/>
<path d="M16.0117 15.7148C16.0117 16.431 15.7074 17.0137 15.0986 17.4629C14.4932 17.9089 13.6696 18.1318 12.6279 18.1318C12.0257 18.1318 11.5 18.0798 11.0508 17.9756C10.6048 17.8682 10.1865 17.7331 9.7959 17.5703V15.8271H10.001C10.3883 16.1364 10.8213 16.374 11.2998 16.54C11.7816 16.7061 12.2438 16.7891 12.6865 16.7891C12.8005 16.7891 12.9502 16.7793 13.1357 16.7598C13.3213 16.7402 13.4727 16.7077 13.5898 16.6621C13.7331 16.6035 13.8503 16.5303 13.9414 16.4424C14.0358 16.3545 14.083 16.2243 14.083 16.0518C14.083 15.8923 14.0146 15.7555 13.8779 15.6416C13.7445 15.5244 13.5475 15.4349 13.2871 15.373C13.0137 15.3079 12.724 15.2477 12.418 15.1924C12.1152 15.1338 11.8304 15.0605 11.5635 14.9727C10.9515 14.7741 10.5104 14.5055 10.2402 14.167C9.97331 13.8252 9.83984 13.402 9.83984 12.8975C9.83984 12.2204 10.1426 11.6686 10.748 11.2422C11.3568 10.8125 12.138 10.5977 13.0918 10.5977C13.5703 10.5977 14.0423 10.6449 14.5078 10.7393C14.9766 10.8304 15.3818 10.946 15.7236 11.0859V12.7607H15.5234C15.2305 12.5264 14.8708 12.3311 14.4443 12.1748C14.0212 12.0153 13.5882 11.9355 13.1455 11.9355C12.9893 11.9355 12.833 11.9469 12.6768 11.9697C12.5238 11.9893 12.3757 12.0283 12.2324 12.0869C12.1055 12.1357 11.9964 12.2106 11.9053 12.3115C11.8141 12.4092 11.7686 12.5215 11.7686 12.6484C11.7686 12.8405 11.8418 12.9886 11.9883 13.0928C12.1348 13.1937 12.4115 13.2865 12.8184 13.3711C13.0853 13.4264 13.3408 13.4801 13.585 13.5322C13.8324 13.5843 14.0977 13.6559 14.3809 13.7471C14.9375 13.9294 15.3477 14.1784 15.6113 14.4941C15.8783 14.8066 16.0117 15.2135 16.0117 15.7148ZM21.8857 16.208C22.068 15.9867 22.2031 15.7262 22.291 15.4268C22.3789 15.124 22.4229 14.7692 22.4229 14.3623C22.4229 13.9261 22.3724 13.555 22.2715 13.249C22.1706 12.943 22.0387 12.6956 21.876 12.5068C21.71 12.3115 21.5179 12.1699 21.2998 12.082C21.085 11.9941 20.8604 11.9502 20.626 11.9502C20.3883 11.9502 20.1637 11.9925 19.9521 12.0771C19.7438 12.1618 19.5518 12.3018 19.376 12.4971C19.2132 12.6794 19.0798 12.9316 18.9756 13.2539C18.8747 13.5729 18.8242 13.944 18.8242 14.3672C18.8242 14.8001 18.873 15.1696 18.9707 15.4756C19.0716 15.7783 19.2035 16.0257 19.3662 16.2178C19.529 16.4098 19.7194 16.5514 19.9375 16.6426C20.1556 16.7337 20.3851 16.7793 20.626 16.7793C20.8669 16.7793 21.0964 16.7337 21.3145 16.6426C21.5326 16.5482 21.723 16.4033 21.8857 16.208ZM22.0859 17.9121C22.099 18.2344 22.1868 18.4655 22.3496 18.6055C22.5124 18.7454 22.7907 18.8154 23.1846 18.8154C23.318 18.8154 23.4759 18.7926 23.6582 18.7471C23.8405 18.7015 23.9674 18.6608 24.0391 18.625H24.2246V19.9141C24.0423 19.9564 23.8438 19.9938 23.6289 20.0264C23.4173 20.0589 23.0918 20.0752 22.6523 20.0752C22.265 20.0752 21.9264 20.0264 21.6367 19.9287C21.3503 19.8343 21.111 19.6992 20.9189 19.5234C20.7301 19.3509 20.5885 19.1475 20.4941 18.9131C20.3997 18.6787 20.3444 18.4183 20.3281 18.1318C19.2409 18.07 18.3929 17.707 17.7842 17.043C17.1787 16.3757 16.876 15.4837 16.876 14.3672C16.876 13.1986 17.208 12.2757 17.8721 11.5986C18.5361 10.9183 19.4525 10.5781 20.6211 10.5781C21.7865 10.5781 22.7028 10.9183 23.3701 11.5986C24.0374 12.2757 24.3711 13.1986 24.3711 14.3672C24.3711 15.2298 24.1758 15.9753 23.7852 16.6035C23.3945 17.2285 22.8281 17.6647 22.0859 17.9121ZM31.0508 18H25.8066V10.7295H27.6816V16.5938H31.0508V18ZM41.4219 15.7148C41.4219 16.431 41.1175 17.0137 40.5088 17.4629C39.9033 17.9089 39.0798 18.1318 38.0381 18.1318C37.4359 18.1318 36.9102 18.0798 36.4609 17.9756C36.015 17.8682 35.5967 17.7331 35.2061 17.5703V15.8271H35.4111C35.7985 16.1364 36.2314 16.374 36.71 16.54C37.1917 16.7061 37.654 16.7891 38.0967 16.7891C38.2106 16.7891 38.3604 16.7793 38.5459 16.7598C38.7314 16.7402 38.8828 16.7077 39 16.6621C39.1432 16.6035 39.2604 16.5303 39.3516 16.4424C39.446 16.3545 39.4932 16.2243 39.4932 16.0518C39.4932 15.8923 39.4248 15.7555 39.2881 15.6416C39.1546 15.5244 38.9577 15.4349 38.6973 15.373C38.4238 15.3079 38.1341 15.2477 37.8281 15.1924C37.5254 15.1338 37.2406 15.0605 36.9736 14.9727C36.3617 14.7741 35.9206 14.5055 35.6504 14.167C35.3835 13.8252 35.25 13.402 35.25 12.8975C35.25 12.2204 35.5527 11.6686 36.1582 11.2422C36.7669 10.8125 37.5482 10.5977 38.502 10.5977C38.9805 10.5977 39.4525 10.6449 39.918 10.7393C40.3867 10.8304 40.792 10.946 41.1338 11.0859V12.7607H40.9336C40.6406 12.5264 40.2809 12.3311 39.8545 12.1748C39.4313 12.0153 38.9984 11.9355 38.5557 11.9355C38.3994 11.9355 38.2432 11.9469 38.0869 11.9697C37.9339 11.9893 37.7858 12.0283 37.6426 12.0869C37.5156 12.1357 37.4066 12.2106 37.3154 12.3115C37.2243 12.4092 37.1787 12.5215 37.1787 12.6484C37.1787 12.8405 37.252 12.9886 37.3984 13.0928C37.5449 13.1937 37.8216 13.2865 38.2285 13.3711C38.4954 13.4264 38.751 13.4801 38.9951 13.5322C39.2425 13.5843 39.5078 13.6559 39.791 13.7471C40.3477 13.9294 40.7578 14.1784 41.0215 14.4941C41.2884 14.8066 41.4219 15.2135 41.4219 15.7148ZM47.9697 18H42.7109V10.7295H47.9697V12.1357H44.5762V13.3906H47.7256V14.7969H44.5762V16.5938H47.9697V18ZM53.624 12.9561C53.624 12.7738 53.5866 12.6175 53.5117 12.4873C53.4368 12.3571 53.3083 12.2546 53.126 12.1797C52.999 12.1276 52.8509 12.0967 52.6816 12.0869C52.5124 12.0739 52.3154 12.0674 52.0908 12.0674H51.4121V14.0254H51.9883C52.2878 14.0254 52.5384 14.0107 52.7402 13.9814C52.9421 13.9521 53.1113 13.8854 53.248 13.7812C53.3783 13.6803 53.4727 13.5697 53.5312 13.4492C53.5931 13.3255 53.624 13.1611 53.624 12.9561ZM56.5488 18H54.2588L52.2764 15.334H51.4121V18H49.5469V10.7295H52.6914C53.1211 10.7295 53.4906 10.7539 53.7998 10.8027C54.109 10.8516 54.3988 10.9574 54.6689 11.1201C54.9424 11.2829 55.1589 11.4945 55.3184 11.7549C55.4811 12.012 55.5625 12.3359 55.5625 12.7266C55.5625 13.2637 55.4372 13.7015 55.1865 14.04C54.9391 14.3786 54.5843 14.6602 54.1221 14.8848L56.5488 18ZM63.9609 10.7295L61.3096 18H59.21L56.5586 10.7295H58.5264L60.2842 15.8369L62.042 10.7295H63.9609ZM70.2646 18H65.0059V10.7295H70.2646V12.1357H66.8711V13.3906H70.0205V14.7969H66.8711V16.5938H70.2646V18ZM75.9189 12.9561C75.9189 12.7738 75.8815 12.6175 75.8066 12.4873C75.7318 12.3571 75.6032 12.2546 75.4209 12.1797C75.2939 12.1276 75.1458 12.0967 74.9766 12.0869C74.8073 12.0739 74.6104 12.0674 74.3857 12.0674H73.707V14.0254H74.2832C74.5827 14.0254 74.8333 14.0107 75.0352 13.9814C75.237 13.9521 75.4062 13.8854 75.543 13.7812C75.6732 13.6803 75.7676 13.5697 75.8262 13.4492C75.888 13.3255 75.9189 13.1611 75.9189 12.9561ZM78.8438 18H76.5537L74.5713 15.334H73.707V18H71.8418V10.7295H74.9863C75.416 10.7295 75.7855 10.7539 76.0947 10.8027C76.404 10.8516 76.6937 10.9574 76.9639 11.1201C77.2373 11.2829 77.4538 11.4945 77.6133 11.7549C77.776 12.012 77.8574 12.3359 77.8574 12.7266C77.8574 13.2637 77.7321 13.7015 77.4814 14.04C77.234 14.3786 76.8792 14.6602 76.417 14.8848L78.8438 18Z" fill="white"/>
</g>
<defs>
<clipPath id="clip0_201_966">
<rect width="88.25" height="28" fill="white"/>
</clipPath>
</defs>
</svg>
